<?xml version="1.0" ?>
<!DOCTYPE svg PUBLIC '-//W3C//DTD SVG 1.1//EN' 'http://www.w3.org/Graphics/SVG/1.1/DTD/svg11.dtd'><svg
    enable-background="new 0 0 30 30" height="30px" id="Layer_1" version="1.1" viewBox="0 0 30 30" width="30px" fill="#1EB000"
    xml:space="preserve" xmlns="http://www.w3.org/2000/svg" xmlns:xlink="http://www.w3.org/1999/xlink">
    <g>
        <path
            d="M23.22,16.815c-0.825-4.154,3.117-6.59,3.117-6.59S24.8,8.005,22.22,7.435c-2.58-0.574-3.871,0.139-5.159,0.68   c-1.29,0.536-1.934,0.536-1.934,0.536c-1.861,0-3.222-1.97-6.771-1.07c-2.441,0.616-5.015,3.436-5.48,6.804   c-0.466,3.367,0.538,7.664,2.472,10.994c1.936,3.332,3.906,4.586,5.303,4.621s2.794-1.002,4.478-1.256   c1.684-0.246,2.718,0.613,4.37,1.078c1.648,0.465,2.224,0.031,4.117-1.58c1.9-1.611,3.623-6.236,3.623-6.236   S24.046,20.974,23.22,16.815z" />
        <path
            d="M19.568,4.747c1.828-1.865,1.207-4.746,1.207-4.746s-2.566,0.447-4.285,2.238c-1.721,1.793-1.436,4.619-1.436,4.619   S17.738,6.61,19.568,4.747z" />
    </g>
</svg>